<svg xmlns="http://www.w3.org/2000/svg" width="200" height="35" viewBox="0 0 200 35"><path fill-rule="evenodd" clip-rule="evenodd" fill="#FFF" d="M56.688 32.098h.62v2.311h-1.155l-.097-1.116h-5.165v-5.836h1.336v4.642h3.125v-4.642h1.336v4.641zm6.02-1.18h3.625v-1.193h-3.625v-1.076h4.03v-1.192h-5.367v5.836h5.517v-1.216h-4.18v-1.159zm13.057-1.234h-3.336v-2.228h-1.336v5.836h1.336v-2.429h3.336v2.429h1.337v-5.836h-1.337v2.228zm12.158.695c0 1.834-1.519 3.06-3.315 3.06-1.797 0-3.315-1.226-3.315-3.06s1.518-3.059 3.315-3.059c1.796 0 3.315 1.225 3.315 3.059zm-1.336 0c0-1.201-.867-1.93-1.979-1.93-1.111 0-1.977.729-1.977 1.93 0 1.203.866 1.93 1.977 1.93 1.112 0 1.979-.727 1.979-1.93zm11.569 1.098c0 1.002-.824 1.815-1.946 1.815h-4.094v-5.836h3.807c1.069 0 1.827.614 1.827 1.563 0 .423-.148.78-.458.992.543.274.864.747.864 1.466zm-4.703-1.774h2.512c.29 0 .48-.262.48-.525 0-.255-.139-.537-.587-.537h-2.406v1.062zm3.4 1.774c0-.38-.267-.623-.652-.623h-2.747v1.244h2.715c.428 0 .684-.264.684-.621zm11.217-.475c0 1.369-1.049 2.29-2.439 2.29h-3.377v-5.836h1.336v1.33h2.041c1.39 0 2.439.844 2.439 2.216zm-1.338 0c0-.717-.406-1.043-1.197-1.043h-1.945v2.129h1.945c.791 0 1.197-.369 1.197-1.086zm1.872 2.29h1.338v-5.836h-1.338v5.836zm6.953-2.374h3.623v-1.193h-3.623v-1.076h4.031v-1.192h-5.369v5.836h5.518v-1.216h-4.18v-1.159zm15.996.59v-4.052h-1.326v5.836h1.305l3.508-4.032v4.032h1.326v-5.836h-1.293l-3.52 4.052zm13.761-1.824h-3.336v-2.228h-1.336v5.836h1.336v-2.429h3.336v2.429h1.338v-5.836h-1.338v2.228zm11.85 2.427h.695v2.297h-1.156l-.105-1.116h-4.566l-.107 1.116h-1.152v-2.297h.746l.932-4.655h4.715v4.655zm-1.336-3.503h-2.289l-.631 3.503h2.92v-3.503zm7.486 2.31h3.623v-1.193h-3.623v-1.076h4.029v-1.192h-5.365v5.836h5.516v-1.216h-4.18v-1.159zm14.457-3.462h-1.541l-1.484 2.154h-1.723v-2.154h-1.326v5.836h1.326v-2.481h1.752l1.551 2.481h1.584l-2.033-3.133 1.894-2.703zm6.875 1.034c.941 0 1.529.348 1.979.982l1.039-.592c-.611-1.023-1.617-1.561-2.996-1.561-1.859 0-3.305 1.17-3.305 3.059s1.412 3.06 3.305 3.06c1.379 0 2.385-.538 2.996-1.563l-1.039-.591c-.449.637-1.037.982-1.979.982-1.156 0-1.955-.76-1.955-1.889 0-1.148.77-1.887 1.955-1.887zm12.983 2.512c0 1.369-1.049 2.29-2.439 2.29h-3.379v-5.836h1.34v1.33h2.039c1.39 0 2.439.844 2.439 2.216zm-1.336 0c0-.717-.406-1.043-1.197-1.043h-1.945v2.129h1.945c.791 0 1.197-.369 1.197-1.086zm1.871 2.29h1.336v-5.836h-1.336v5.836zM66.841 13.597V4.044h-4.466v9.715c0 1.204-.321 2.078-.99 2.681a3.796 3.796 0 0 1-2.604 1.046c-1.052 0-1.891-.329-2.583-1.026-.69-.623-1.04-1.531-1.04-2.701V4.044H50.69v9.553c0 2.305.783 4.225 2.332 5.709 1.482 1.391 3.474 2.126 5.758 2.126 2.197 0 4.074-.686 5.579-2.039 1.647-1.486 2.482-3.436 2.482-5.796zm17.05 1.438c-1.355 1.213-3.076 1.853-4.979 1.853h-4.34v4.274h-4.495V4.044h8.835c2.171 0 4.114.833 5.472 2.343 1.071 1.264 1.587 2.608 1.587 4.119-.001 1.67-.759 3.321-2.08 4.529zm-9.319-2.065h4.311c.795 0 1.441-.263 1.921-.781.473-.492.7-1.04.7-1.684 0-.744-.203-1.332-.62-1.796-.524-.596-1.502-.721-2.231-.721h-4.082v4.982zm31.672 8.192h-4.795l-1.403-2.877h-7.988l-1.374 2.877h-4.741l8.084-17.118h4.132l8.085 17.118zM96.001 8.847l-2.208 5.521h4.529l-2.321-5.521zm20.882-1.208c1.779 0 3.188.566 4.709 1.894l.369.321 2.705-2.9-.371-.334c-2.295-2.066-4.373-2.871-7.412-2.871-2.678 0-5.119.908-6.877 2.559-1.75 1.67-2.674 3.838-2.674 6.269 0 2.56.947 4.786 2.736 6.436 1.736 1.601 4.092 2.446 6.814 2.446 3.08 0 5.16-.837 7.422-2.988l.355-.339-2.701-2.825-.363.31c-1.576 1.348-2.986 1.923-4.713 1.923a5.456 5.456 0 0 1-3.75-1.478c-.883-.83-1.391-2.1-1.391-3.486 0-1.332.574-2.665 1.529-3.562.972-.887 2.255-1.375 3.613-1.375zm20.914 4.307l5.877-7.902h-5.254l-4.439 6.076h-2.393V4.044h-4.439v17.118h4.439v-7.178h2.438l4.811 7.178h5.154l-6.194-9.216zm25.119-7.902h-4.324v10.128l-8.805-10.128h-3.824v17.118h4.381V11.089l8.748 10.073h3.824V4.044zm7.73 10.155h8.936v-3.917h-8.936V7.989h9.996V4.044H166.18v17.118h14.863v-3.918h-10.396v-3.045zm12.629-10.155v3.892h6.188v13.227h4.352V7.936H200V4.044h-16.725zM35.744 1.381c-.386-.212-.612.21-.868.403-1.574 1.188-3.106 2.436-4.713 3.577-.852.606-1.179 1.296-1.167 2.333.049 4.206.011 8.413.014 12.619.001 1.79-.796 3.048-2.418 3.879-1.969 1.009-3.445-.274-4.722-1.216-2.785-2.051-5.789-3.762-8.61-5.747-.832-.583-1.291-.6-1.274.634.044 3.276.042 6.553 0 9.83-.012.869.377 1.31 1.095 1.709a449.67 449.67 0 0 1 9.129 5.221c.879.519 1.514.531 2.354-.137a541.848 541.848 0 0 1 10.42-8.048c.702-.53.996-1.085.986-1.959-.043-3.618-.018-7.238-.018-10.857 0-3.766.003-7.532-.006-11.297-.001-.325.146-.753-.202-.944zM22.76 17.591c.306.209.62.614 1.04.369.332-.192.202-.621.203-.946.009-3.229-.015-6.457.018-9.684.009-.787-.285-1.243-.974-1.628C19.9 3.945 16.758 2.177 13.666.33c-.895-.534-1.463-.385-2.219.211A546.262 546.262 0 0 1 1.136 8.487C.291 9.121-.005 9.805 0 10.832c.039 7.141.018 14.28.027 21.422 0 .473-.128.975.303 1.615 1.686-1.292 3.217-2.617 4.901-3.711 1.418-.924 1.843-2.053 1.797-3.674-.106-3.764-.054-7.531-.022-11.298.012-1.271.19-2.529 1.168-3.506 1.466-1.462 3.626-1.613 5.563-.302 3.023 2.048 6.011 4.148 9.023 6.213z"/></svg>