<svg xmlns="http://www.w3.org/2000/svg" width="60" height="60" viewBox="0 0 60 60"><g fill="#FFF"><path d="M30 0C13.458 0 0 13.458 0 30s13.458 30 30 30 30-13.458 30-30S46.542 0 30 0zm0 58.064C14.525 58.064 1.936 45.475 1.936 30S14.525 1.936 30 1.936 58.064 14.525 58.064 30 45.475 58.064 30 58.064z"/><path d="M38.524 29.565L30 38.09l-8.523-8.524a1.452 1.452 0 1 0-2.053 2.053l9.55 9.551a1.45 1.45 0 0 0 2.052 0l9.551-9.551a1.452 1.452 0 0 0-2.053-2.054z"/><path d="M38.524 20.015L30 28.539l-8.523-8.524a1.452 1.452 0 1 0-2.053 2.053l9.55 9.551a1.45 1.45 0 0 0 2.052 0l9.551-9.551a1.452 1.452 0 1 0-2.053-2.053z"/></g></svg>