<?xml version="1.0" encoding="utf-8"?>
<!-- Generator: Adobe Illustrator 16.2.0, SVG Export Plug-In . SVG Version: 6.00 Build 0)  -->
<!DOCTYPE svg PUBLIC "-//W3C//DTD SVG 1.1//EN" "http://www.w3.org/Graphics/SVG/1.1/DTD/svg11.dtd">
<svg version="1.1" id="Слой_1" xmlns="http://www.w3.org/2000/svg" xmlns:xlink="http://www.w3.org/1999/xlink" x="0px" y="0px"
	 width="200px" height="35px" viewBox="0 0 200 35" enable-background="new 0 0 200 35" xml:space="preserve">
<path id="_x32_00х35" fill-rule="evenodd" clip-rule="evenodd" fill="#FFFFFF" d="M56.688,32.098h0.62v2.311h-1.155l-0.097-1.116
	h-5.165v-5.836h1.336v4.642h3.125v-4.642h1.336V32.098z M62.708,30.918h3.625v-1.193h-3.625v-1.076h4.03v-1.192h-5.367v5.836h5.517
	v-1.216h-4.18V30.918z M75.765,29.684h-3.336v-2.228h-1.336v5.836h1.336v-2.429h3.336v2.429h1.337v-5.836h-1.337V29.684z
	 M87.923,30.379c0,1.834-1.519,3.06-3.315,3.06c-1.797,0-3.315-1.226-3.315-3.06s1.518-3.059,3.315-3.059
	C86.404,27.32,87.923,28.545,87.923,30.379z M86.587,30.379c0-1.201-0.867-1.93-1.979-1.93c-1.111,0-1.977,0.729-1.977,1.93
	c0,1.203,0.866,1.93,1.977,1.93C85.72,32.309,86.587,31.582,86.587,30.379z M98.156,31.477c0,1.002-0.824,1.815-1.946,1.815h-4.094
	v-5.836h3.807c1.069,0,1.827,0.614,1.827,1.563c0,0.423-0.148,0.78-0.458,0.992C97.835,30.285,98.156,30.758,98.156,31.477z
	 M93.453,29.703h2.512c0.29,0,0.48-0.262,0.48-0.525c0-0.255-0.139-0.537-0.587-0.537h-2.406V29.703z M96.853,31.477
	c0-0.38-0.267-0.623-0.652-0.623h-2.747v1.244h2.715C96.597,32.098,96.853,31.834,96.853,31.477z M108.07,31.002
	c0,1.369-1.049,2.29-2.439,2.29h-3.377v-5.836h1.336v1.33h2.041C107.021,28.786,108.07,29.63,108.07,31.002z M106.732,31.002
	c0-0.717-0.406-1.043-1.197-1.043h-1.945v2.129h1.945C106.326,32.088,106.732,31.719,106.732,31.002z M108.604,33.292h1.338v-5.836
	h-1.338V33.292z M115.557,30.918h3.623v-1.193h-3.623v-1.076h4.031v-1.192h-5.369v5.836h5.518v-1.216h-4.18V30.918z M131.553,31.508
	v-4.052h-1.326v5.836h1.305l3.508-4.032v4.032h1.326v-5.836h-1.293L131.553,31.508z M145.314,29.684h-3.336v-2.228h-1.336v5.836
	h1.336v-2.429h3.336v2.429h1.338v-5.836h-1.338V29.684z M157.164,32.111h0.695v2.297h-1.156l-0.105-1.116h-4.566l-0.107,1.116
	h-1.152v-2.297h0.746l0.932-4.655h4.715V32.111z M155.828,28.608h-2.289l-0.631,3.503h2.92V28.608z M163.314,30.918h3.623v-1.193
	h-3.623v-1.076h4.029v-1.192h-5.365v5.836h5.516v-1.216h-4.18V30.918z M177.771,27.456h-1.541l-1.484,2.154h-1.723v-2.154h-1.326
	v5.836h1.326v-2.481h1.752l1.551,2.481h1.584l-2.033-3.133L177.771,27.456z M184.646,28.49c0.941,0,1.529,0.348,1.979,0.982
	l1.039-0.592c-0.611-1.023-1.617-1.561-2.996-1.561c-1.859,0-3.305,1.17-3.305,3.059s1.412,3.06,3.305,3.06
	c1.379,0,2.385-0.538,2.996-1.563l-1.039-0.591c-0.449,0.637-1.037,0.982-1.979,0.982c-1.156,0-1.955-0.76-1.955-1.889
	C182.691,29.229,183.461,28.49,184.646,28.49z M197.629,31.002c0,1.369-1.049,2.29-2.439,2.29h-3.379v-5.836h1.34v1.33h2.039
	C196.58,28.786,197.629,29.63,197.629,31.002z M196.293,31.002c0-0.717-0.406-1.043-1.197-1.043h-1.945v2.129h1.945
	C195.887,32.088,196.293,31.719,196.293,31.002z M198.164,33.292h1.336v-5.836h-1.336V33.292z M66.841,13.597V4.044h-4.466v9.715
	c0,1.204-0.321,2.078-0.99,2.681c-0.718,0.675-1.643,1.046-2.604,1.046c-1.052,0-1.891-0.329-2.583-1.026
	c-0.69-0.623-1.04-1.531-1.04-2.701V4.044H50.69v9.553c0,2.305,0.783,4.225,2.332,5.709c1.482,1.391,3.474,2.126,5.758,2.126
	c2.197,0,4.074-0.686,5.579-2.039C66.006,17.907,66.841,15.957,66.841,13.597z M83.891,15.035c-1.355,1.213-3.076,1.853-4.979,1.853
	h-4.34v4.274h-4.495V4.044h8.835c2.171,0,4.114,0.833,5.472,2.343c1.071,1.264,1.587,2.608,1.587,4.119
	C85.97,12.176,85.212,13.827,83.891,15.035z M74.572,12.97h4.311c0.795,0,1.441-0.263,1.921-0.781c0.473-0.492,0.7-1.04,0.7-1.684
	c0-0.744-0.203-1.332-0.62-1.796c-0.524-0.596-1.502-0.721-2.231-0.721h-4.082V12.97z M106.244,21.162h-4.795l-1.403-2.877h-7.988
	l-1.374,2.877h-4.741l8.084-17.118h4.132L106.244,21.162z M96.001,8.847l-2.208,5.521h4.529L96.001,8.847z M116.883,7.639
	c1.779,0,3.188,0.566,4.709,1.894l0.369,0.321l2.705-2.9l-0.371-0.334c-2.295-2.066-4.373-2.871-7.412-2.871
	c-2.678,0-5.119,0.908-6.877,2.559c-1.75,1.67-2.674,3.838-2.674,6.269c0,2.56,0.947,4.786,2.736,6.436
	c1.736,1.601,4.092,2.446,6.814,2.446c3.08,0,5.16-0.837,7.422-2.988l0.355-0.339l-2.701-2.825l-0.363,0.31
	c-1.576,1.348-2.986,1.923-4.713,1.923c-1.402,0-2.734-0.524-3.75-1.478c-0.883-0.83-1.391-2.1-1.391-3.486
	c0-1.332,0.574-2.665,1.529-3.562C114.242,8.127,115.525,7.639,116.883,7.639z M137.797,11.946l5.877-7.902h-5.254l-4.439,6.076
	h-2.393V4.044h-4.439v17.118h4.439v-7.178h2.438l4.811,7.178h5.154L137.797,11.946z M162.916,4.044h-4.324v10.128l-8.805-10.128
	h-3.824v17.118h4.381V11.089l8.748,10.073h3.824V4.044z M170.646,14.199h8.936v-3.917h-8.936V7.989h9.996V4.044H166.18v17.118
	h14.863v-3.918h-10.396V14.199z M183.275,4.044v3.892h6.188v13.227h4.352V7.936H200V4.044H183.275z M35.744,1.381
	c-0.386-0.212-0.612,0.21-0.868,0.403c-1.574,1.188-3.106,2.436-4.713,3.577c-0.852,0.606-1.179,1.296-1.167,2.333
	c0.049,4.206,0.011,8.413,0.014,12.619c0.001,1.79-0.796,3.048-2.418,3.879c-1.969,1.009-3.445-0.274-4.722-1.216
	c-2.785-2.051-5.789-3.762-8.61-5.747c-0.832-0.583-1.291-0.6-1.274,0.634c0.044,3.276,0.042,6.553,0,9.83
	c-0.012,0.869,0.377,1.31,1.095,1.709c3.061,1.709,6.109,3.441,9.129,5.221c0.879,0.519,1.514,0.531,2.354-0.137
	c3.435-2.73,6.918-5.401,10.42-8.048c0.702-0.53,0.996-1.085,0.986-1.959c-0.043-3.618-0.018-7.238-0.018-10.857
	c0-3.766,0.003-7.532-0.006-11.297C35.945,2,36.092,1.572,35.744,1.381z M22.76,17.591c0.306,0.209,0.62,0.614,1.04,0.369
	c0.332-0.192,0.202-0.621,0.203-0.946c0.009-3.229-0.015-6.457,0.018-9.684c0.009-0.787-0.285-1.243-0.974-1.628
	C19.9,3.945,16.758,2.177,13.666,0.33c-0.895-0.534-1.463-0.385-2.219,0.211C8.039,3.227,4.607,5.883,1.136,8.487
	C0.291,9.121-0.005,9.805,0,10.832c0.039,7.141,0.018,14.28,0.027,21.422c0,0.473-0.128,0.975,0.303,1.615
	c1.686-1.292,3.217-2.617,4.901-3.711c1.418-0.924,1.843-2.053,1.797-3.674c-0.106-3.764-0.054-7.531-0.022-11.298
	c0.012-1.271,0.19-2.529,1.168-3.506c1.466-1.462,3.626-1.613,5.563-0.302C16.76,13.426,19.748,15.526,22.76,17.591z"/>
</svg>
