<?xml version="1.0" encoding="utf-8"?>
<!-- Generator: Adobe Illustrator 16.2.0, SVG Export Plug-In . SVG Version: 6.00 Build 0)  -->
<!DOCTYPE svg PUBLIC "-//W3C//DTD SVG 1.1//EN" "http://www.w3.org/Graphics/SVG/1.1/DTD/svg11.dtd">
<svg version="1.1" id="Слой_1" xmlns="http://www.w3.org/2000/svg" xmlns:xlink="http://www.w3.org/1999/xlink" x="0px" y="0px"
	 width="60px" height="60px" viewBox="0 0 60 60" enable-background="new 0 0 60 60" xml:space="preserve">
<g>
	<path fill="#FFFFFF" d="M30,0C13.458,0,0,13.458,0,30s13.458,30,30,30s30-13.458,30-30S46.542,0,30,0z M30,58.064
		C14.525,58.064,1.936,45.475,1.936,30C1.936,14.525,14.525,1.936,30,1.936c15.475,0,28.064,12.589,28.064,28.064
		C58.064,45.475,45.475,58.064,30,58.064z"/>
	<path fill="#FFFFFF" d="M38.524,29.565L30,38.09l-8.523-8.524c-0.567-0.567-1.486-0.567-2.053,0c-0.567,0.566-0.567,1.485,0,2.053
		l9.55,9.551c0.284,0.283,0.655,0.425,1.026,0.425s0.743-0.142,1.026-0.425l9.551-9.551c0.567-0.567,0.567-1.486,0-2.053
		C40.01,28.998,39.092,28.998,38.524,29.565z"/>
	<path fill="#FFFFFF" d="M38.524,20.015L30,28.539l-8.523-8.524c-0.567-0.567-1.486-0.567-2.053,0c-0.567,0.566-0.567,1.485,0,2.053
		l9.55,9.551c0.284,0.283,0.655,0.425,1.026,0.425s0.743-0.142,1.026-0.425l9.551-9.551c0.567-0.567,0.567-1.486,0-2.053
		C40.01,19.447,39.092,19.447,38.524,20.015z"/>
</g>
</svg>
